<svg id="SvgjsSvg1014" xmlns="http://www.w3.org/2000/svg" version="1.1" xmlns:xlink="http://www.w3.org/1999/xlink" xmlns:svgjs="http://svgjs.com/svgjs" width="24" height="24" viewBox="0 0 24 24"><title>setup-ic</title><desc>Created with Avocode.</desc><defs id="SvgjsDefs1015"></defs><path id="SvgjsPath1016" d="M249.59 908.4L247.04 914.4L264.96 914.4L262.40999999999997 908.4L265.03999999999996 908.4L267.7 914.66C267.89 915.11 268 915.5899999999999 268 916.0899999999999L268 921.5999999999999C268 922.92 266.92 923.9999999999999 265.6 923.9999999999999L246.40000000000003 923.9999999999999C245.08000000000004 923.9999999999999 244.00000000000003 922.9199999999998 244.00000000000003 921.5999999999999L244.00000000000003 916.0899999999999C244.00000000000003 915.5899999999999 244.11000000000004 915.1099999999999 244.30000000000004 914.66L246.96000000000004 908.4ZM257.2 900L257.2 906L260.8 906L256 910.8L251.2 906L254.79999999999998 906L254.79999999999998 900ZM261.4 919.2C261.4 920.19 262.21 921 263.2 921C264.19 921 265 920.19 265 919.2C265 918.21 264.19 917.4000000000001 263.2 917.4000000000001C262.21 917.4000000000001 261.4 918.21 261.4 919.2Z " fill="#7049e8" fill-opacity="1" transform="matrix(1,0,0,1,-244,-900)"></path></svg>