<svg id="SvgjsSvg1011" xmlns="http://www.w3.org/2000/svg" version="1.1" xmlns:xlink="http://www.w3.org/1999/xlink" xmlns:svgjs="http://svgjs.com/svgjs" width="25" height="24" viewBox="0 0 25 24"><title>launch-ic</title><desc>Created with Avocode.</desc><defs id="SvgjsDefs1012"></defs><path id="SvgjsPath1013" d="M594.36 902.1C585.98 905.97 582.73 913.94 582.73 914.0400000000001C582.62 914.46 582.62 914.8800000000001 582.94 915.2L588.9100000000001 921.1700000000001C589.1200000000001 921.3800000000001 589.33 921.48 589.6400000000001 921.48C589.7500000000001 921.48 589.9600000000002 921.48 590.0600000000001 921.38C590.1700000000001 921.38 598.0300000000001 918.03 601.9000000000001 909.64ZM593.84 921.59L595.4100000000001 923.1600000000001C595.6200000000001 923.3700000000001 595.83 923.4800000000001 596.1400000000001 923.4800000000001C596.3500000000001 923.4800000000001 596.4600000000002 923.4800000000001 596.6600000000001 923.3700000000001C597.4000000000001 922.9500000000002 598.0300000000001 922.4300000000001 598.5500000000001 921.9000000000001C600.44 920.0200000000001 601.3800000000001 917.4000000000001 601.2800000000001 914.7800000000001C598.7600000000001 918.0300000000001 595.9300000000001 920.2300000000001 593.84 921.59ZM582.41 910.17C583.78 908.0699999999999 585.98 905.24 589.2199999999999 902.7199999999999C586.5999999999999 902.7199999999999 584.0899999999999 903.67 582.1999999999999 905.55C581.68 906.0799999999999 581.16 906.7099999999999 580.7399999999999 907.4399999999999C580.5299999999999 907.8599999999999 580.5299999999999 908.38 580.8399999999999 908.6999999999999ZM602.74 907.55C603.37 905.66 603.9 903.56 604 901.15C604 900.84 603.9 900.52 603.69 900.31C603.48 900.0999999999999 603.1600000000001 900 602.85 900C600.44 900.1 598.34 900.52 596.46 901.26ZM585.35 918.66C584.19 917.5 582.1 917.5 580.95 918.66C579.9000000000001 919.6999999999999 580 922.3199999999999 580 923.06C580 923.5799999999999 580.42 924 580.95 924C580.95 924 581.26 924 581.7800000000001 924C584.4000000000001 924 585.1400000000001 923.27 585.3500000000001 923.06C585.9800000000001 922.53 586.2900000000002 921.6899999999999 586.2900000000002 920.8599999999999C586.2900000000002 920.0199999999999 585.9800000000002 919.18 585.3500000000001 918.6599999999999ZM594.04 912.89C593.2099999999999 913.73 591.9499999999999 913.73 591.11 912.89C590.27 912.05 590.27 910.79 591.11 909.96C591.95 909.12 593.21 909.12 594.04 909.96C594.88 910.7900000000001 594.88 912.0500000000001 594.04 912.89Z " fill="#7049e8" fill-opacity="1" transform="matrix(1,0,0,1,-579,-900)"></path></svg>